adventprofmm_reg_krn.ufo
<glyph name="plus" format="1">
  <advance width="378"/>
  <unicode hex="002B"/>
  <outline>
    <contour>
      <point x="216" y="528" type="line"/>
      <point x="161" y="528" type="line"/>
      <point x="161" y="397" type="line"/>
      <point x="28" y="397" type="line"/>
      <point x="28" y="342" type="line"/>
      <point x="161" y="342" type="line"/>
      <point x="161" y="209" type="line"/>
      <point x="216" y="209" type="line"/>
      <point x="216" y="342" type="line"/>
      <point x="347" y="342" type="line"/>
      <point x="347" y="397" type="line"/>
      <point x="216" y="397" type="line"/>
    </contour>
  </outline>
</glyph>
<glyph name="five" format="1">
  <advance width="439"/>
  <unicode hex="0035"/>
  <outline>
    <contour>
      <point x="116" y="411" type="curve"/>
      <point x="140" y="641" type="line"/>
      <point x="356" y="641" type="line"/>
      <point x="356" y="698" type="line"/>
      <point x="91" y="698" type="line"/>
      <point x="54" y="355" type="line"/>
      <point x="169" y="355" type="line" smooth="yes"/>
      <point x="290" y="355"/>
      <point x="355" y="287"/>
      <point x="355" y="200" type="curve" smooth="yes"/>
      <point x="355" y="105"/>
      <point x="278" y="44"/>
      <point x="198" y="44" type="curve" smooth="yes"/>
      <point x="110" y="44"/>
      <point x="49" y="89"/>
      <point x="49" y="89" type="curve"/>
      <point x="28" y="42" type="line"/>
      <point x="28" y="42"/>
      <point x="112" y="-12"/>
      <point x="201" y="-12" type="curve" smooth="yes"/>
      <point x="334" y="-12"/>
      <point x="411" y="96"/>
      <point x="411" y="198" type="curve" smooth="yes"/>
      <point x="411" y="343"/>
      <point x="300" y="411"/>
      <point x="169" y="411" type="curve" smooth="yes"/>
      <point x="158" y="411"/>
      <point x="127" y="411"/>
    </contour>
  </outline>
</glyph>
<glyph name="seven" format="1">
  <advance width="434"/>
  <unicode hex="0037"/>
  <outline>
    <contour>
      <point x="99" y="0" type="line"/>
      <point x="417" y="643" type="line"/>
      <point x="417" y="698" type="line"/>
      <point x="26" y="698" type="line"/>
      <point x="26" y="641" type="line"/>
      <point x="354" y="641" type="line"/>
      <point x="37" y="0" type="line"/>
    </contour>
  </outline>
</glyph>
<glyph name="at" format="1">
  <advance width="717"/>
  <unicode hex="0040"/>
  <outline>
    <contour>
      <point x="688" y="450" type="curve"/>
      <point x="673" y="491" type="line"/>
      <point x="616" y="474"/>
      <point x="599" y="433"/>
      <point x="599" y="363" type="curve" smooth="yes"/>
      <point x="599" y="354"/>
      <point x="599" y="172"/>
      <point x="599" y="162" type="curve" smooth="yes"/>
      <point x="599" y="35"/>
      <point x="474" y="-11"/>
      <point x="348" y="-11" type="curve" smooth="yes"/>
      <point x="196" y="-11"/>
      <point x="91" y="44"/>
      <point x="91" y="189" type="curve" smooth="yes"/>
      <point x="91" y="240"/>
      <point x="91" y="290"/>
      <point x="91" y="341" type="curve" smooth="yes"/>
      <point x="91" y="465"/>
      <point x="175" y="529"/>
      <point x="287" y="529" type="curve" smooth="yes"/>
      <point x="380" y="529"/>
      <point x="444" y="496"/>
      <point x="462" y="442" type="curve"/>
      <point x="407" y="442"/>
      <point x="351" y="442"/>
      <point x="296" y="442" type="curve" smooth="yes"/>
      <point x="222" y="441"/>
      <point x="155" y="405"/>
      <point x="155" y="288" type="curve" smooth="yes"/>
      <point x="155" y="233" type="line" smooth="yes"/>
      <point x="155" y="84"/>
      <point x="253" y="58"/>
      <point x="348" y="61" type="curve" smooth="yes"/>
      <point x="395" y="63"/>
      <point x="514" y="69"/>
      <point x="514" y="69" type="curve"/>
      <point x="514" y="176"/>
      <point x="514" y="282"/>
      <point x="514" y="388" type="curve"/>
      <point x="564" y="388" type="line"/>
      <point x="577" y="442" type="line"/>
      <point x="510" y="442" type="line"/>
      <point x="494" y="515"/>
      <point x="427" y="577"/>
      <point x="284" y="577" type="curve" smooth="yes"/>
      <point x="122" y="577"/>
      <point x="31" y="477"/>
      <point x="31" y="338" type="curve" smooth="yes"/>
      <point x="31" y="290"/>
      <point x="32" y="239"/>
      <point x="32" y="183" type="curve" smooth="yes"/>
      <point x="32" y="11"/>
      <point x="183" y="-66"/>
      <point x="340" y="-66" type="curve" smooth="yes"/>
      <point x="503" y="-66"/>
      <point x="655" y="2"/>
      <point x="655" y="170" type="curve" smooth="yes"/>
      <point x="654" y="380" type="line" smooth="yes"/>
      <point x="654" y="417"/>
      <point x="665" y="440"/>
    </contour>
    <contour>
      <point x="293" y="388" type="curve" smooth="yes"/>
      <point x="352" y="388"/>
      <point x="409" y="388"/>
      <point x="467" y="388" type="curve"/>
      <point x="467" y="119" type="line"/>
      <point x="467" y="119"/>
      <point x="399" y="111"/>
      <point x="328" y="111" type="curve" smooth="yes"/>
      <point x="248" y="111"/>
      <point x="208" y="152"/>
      <point x="208" y="227" type="curve" smooth="yes"/>
      <point x="208" y="285" type="line" smooth="yes"/>
      <point x="208" y="383"/>
      <point x="262" y="388"/>
    </contour>
  </outline>
</glyph>
<glyph name="K" format="1">
  <advance width="457"/>
  <unicode hex="004B"/>
  <outline>
    <contour>
      <point x="97" y="366" type="line"/>
      <point x="97" y="698" type="line"/>
      <point x="41" y="698" type="line"/>
      <point x="41" y="0" type="line"/>
      <point x="97" y="0" type="line"/>
      <point x="97" y="268" type="line"/>
      <point x="144" y="344" type="line"/>
      <point x="370" y="0" type="line"/>
      <point x="437" y="0" type="line"/>
      <point x="181" y="397" type="line"/>
      <point x="385" y="698" type="line"/>
      <point x="320" y="698" type="line"/>
    </contour>
  </outline>
</glyph>
<glyph name="V" format="1">
  <advance width="509"/>
  <unicode hex="0056"/>
  <outline>
    <contour>
      <point x="15" y="698" type="line"/>
      <point x="215" y="0" type="line"/>
      <point x="292" y="0" type="line"/>
      <point x="491" y="698" type="line"/>
      <point x="432" y="698" type="line"/>
      <point x="253" y="69" type="line"/>
      <point x="75" y="698" type="line"/>
    </contour>
  </outline>
</glyph>
<glyph name="l" format="1">
  <advance width="139"/>
  <unicode hex="006C"/>
  <outline>
    <contour>
      <point x="41" y="0" type="line"/>
      <point x="96" y="0" type="line"/>
      <point x="96" y="698" type="line"/>
      <point x="41" y="698" type="line"/>
    </contour>
  </outline>
</glyph>
<glyph name="Edotaccent" format="1">
  <advance width="405"/>
  <unicode hex="0116"/>
  <outline>
    <contour>
      <point x="41" y="0" type="line"/>
      <point x="372" y="0" type="line"/>
      <point x="372" y="50" type="line"/>
      <point x="97" y="50" type="line"/>
      <point x="97" y="356" type="line"/>
      <point x="269" y="356" type="line"/>
      <point x="287" y="411" type="line"/>
      <point x="97" y="411" type="line"/>
      <point x="97" y="646" type="line"/>
      <point x="374" y="646" type="line"/>
      <point x="374" y="698" type="line"/>
      <point x="41" y="698" type="line"/>
    </contour>
    <contour>
      <point x="219" y="836" type="curve" smooth="yes"/>
      <point x="200" y="836"/>
      <point x="186" y="821"/>
      <point x="186" y="802" type="curve" smooth="yes"/>
      <point x="186" y="784"/>
      <point x="200" y="769"/>
      <point x="219" y="769" type="curve" smooth="yes"/>
      <point x="238" y="769"/>
      <point x="253" y="784"/>
      <point x="253" y="802" type="curve" smooth="yes"/>
      <point x="253" y="821"/>
      <point x="238" y="836"/>
    </contour>
  </outline>
</glyph>
<glyph name="edotaccent" format="1">
  <advance width="420"/>
  <unicode hex="0117"/>
  <outline>
    <contour>
      <point x="86" y="133" type="curve" smooth="yes"/>
      <point x="86" y="195" type="line"/>
      <point x="390" y="211" type="line"/>
      <point x="390" y="341" type="line" smooth="yes"/>
      <point x="390" y="392"/>
      <point x="375" y="432"/>
      <point x="347" y="461" type="curve" smooth="yes"/>
      <point x="316" y="492"/>
      <point x="271" y="508"/>
      <point x="214" y="508" type="curve" smooth="yes"/>
      <point x="164" y="508"/>
      <point x="123" y="496"/>
      <point x="92" y="473" type="curve" smooth="yes"/>
      <point x="53" y="444"/>
      <point x="30" y="398"/>
      <point x="30" y="338" type="curve" smooth="yes"/>
      <point x="30" y="133" type="line" smooth="yes"/>
      <point x="30" y="80"/>
      <point x="47" y="46"/>
      <point x="71" y="24" type="curve" smooth="yes"/>
      <point x="112" y="-13"/>
      <point x="172" y="-12"/>
      <point x="202" y="-12" type="curve" smooth="yes"/>
      <point x="252" y="-11"/>
      <point x="314" y="4"/>
      <point x="365" y="35" type="curve"/>
      <point x="343" y="78" type="line"/>
      <point x="292" y="51"/>
      <point x="246" y="36"/>
      <point x="197" y="36" type="curve" smooth="yes"/>
      <point x="178" y="36"/>
      <point x="137" y="36"/>
      <point x="112" y="63" type="curve"/>
      <point x="96" y="77"/>
      <point x="86" y="99"/>
    </contour>
    <contour>
      <point x="334" y="348" type="curve" smooth="yes"/>
      <point x="334" y="319"/>
      <point x="334" y="289"/>
      <point x="334" y="261" type="curve"/>
      <point x="86" y="250" type="line"/>
      <point x="86" y="278"/>
      <point x="86" y="308"/>
      <point x="86" y="337" type="curve" smooth="yes"/>
      <point x="86" y="378"/>
      <point x="98" y="408"/>
      <point x="120" y="429" type="curve" smooth="yes"/>
      <point x="144" y="450"/>
      <point x="175" y="461"/>
      <point x="213" y="461" type="curve" smooth="yes"/>
      <point x="246" y="461"/>
      <point x="280" y="454"/>
      <point x="311" y="418" type="curve" smooth="yes"/>
      <point x="326" y="399"/>
      <point x="334" y="377"/>
    </contour>
    <contour>
      <point x="249" y="609" type="curve" smooth="yes"/>
      <point x="249" y="628"/>
      <point x="235" y="642"/>
      <point x="216" y="642" type="curve" smooth="yes"/>
      <point x="197" y="642"/>
      <point x="183" y="628"/>
      <point x="183" y="609" type="curve" smooth="yes"/>
      <point x="183" y="591"/>
      <point x="197" y="576"/>
      <point x="216" y="576" type="curve" smooth="yes"/>
      <point x="235" y="576"/>
      <point x="249" y="591"/>
    </contour>
  </outline>
</glyph>
<glyph name="gcircumflex" format="1">
  <advance width="437"/>
  <unicode hex="011D"/>
  <outline>
    <contour>
      <point x="400" y="-64" type="curve" smooth="yes"/>
      <point x="400" y="498" type="line"/>
      <point x="343" y="498" type="line"/>
      <point x="343" y="451" type="line"/>
      <point x="300" y="487"/>
      <point x="249" y="506"/>
      <point x="201" y="508" type="curve" smooth="yes"/>
      <point x="91" y="513"/>
      <point x="30" y="450"/>
      <point x="30" y="345" type="curve" smooth="yes"/>
      <point x="30" y="175" type="line" smooth="yes"/>
      <point x="30" y="53"/>
      <point x="90" y="-12"/>
      <point x="201" y="-12" type="curve" smooth="yes"/>
      <point x="261" y="-12"/>
      <point x="319" y="20"/>
      <point x="343" y="61" type="curve"/>
      <point x="343" y="-63" type="line" smooth="yes"/>
      <point x="343" y="-116"/>
      <point x="319" y="-150"/>
      <point x="275" y="-167" type="curve"/>
      <point x="292" y="-210" type="line"/>
      <point x="368" y="-186"/>
      <point x="400" y="-144"/>
    </contour>
    <contour>
      <point x="343" y="392" type="curve"/>
      <point x="343" y="173" type="line" smooth="yes"/>
      <point x="343" y="88"/>
      <point x="281" y="40"/>
      <point x="204" y="40" type="curve" smooth="yes"/>
      <point x="128" y="40"/>
      <point x="87" y="82"/>
      <point x="87" y="166" type="curve" smooth="yes"/>
      <point x="87" y="342" type="line" smooth="yes"/>
      <point x="87" y="432"/>
      <point x="149" y="463"/>
      <point x="213" y="458" type="curve" smooth="yes"/>
      <point x="257" y="454"/>
      <point x="313" y="433"/>
    </contour>
    <contour>
      <point x="93" y="586" type="line"/>
      <point x="131" y="548" type="line"/>
      <point x="225" y="637" type="line"/>
      <point x="314" y="549" type="line"/>
      <point x="352" y="587" type="line"/>
      <point x="225" y="713" type="line"/>
    </contour>
  </outline>
</glyph>
<glyph name="Hcircumflex" format="1">
  <advance width="512"/>
  <unicode hex="0124"/>
  <outline>
    <contour>
      <point x="414" y="411" type="line"/>
      <point x="97" y="411" type="line"/>
      <point x="97" y="698" type="line"/>
      <point x="41" y="698" type="line"/>
      <point x="41" y="0" type="line"/>
      <point x="97" y="0" type="line"/>
      <point x="97" y="356" type="line"/>
      <point x="414" y="356" type="line"/>
      <point x="414" y="0" type="line"/>
      <point x="470" y="0" type="line"/>
      <point x="470" y="698" type="line"/>
      <point x="414" y="698" type="line"/>
    </contour>
    <contour>
      <point x="125" y="778" type="line"/>
      <point x="163" y="740" type="line"/>
      <point x="257" y="829" type="line"/>
      <point x="346" y="741" type="line"/>
      <point x="384" y="780" type="line"/>
      <point x="257" y="905" type="line"/>
    </contour>
  </outline>
</glyph>
<glyph name="iogonek" format="1">
  <advance width="244"/>
  <unicode hex="012F"/>
  <outline>
    <contour>
      <point x="96" y="0" type="line"/>
      <point x="152" y="0" type="line"/>
      <point x="152" y="499" type="line"/>
      <point x="96" y="499" type="line"/>
    </contour>
    <contour>
      <point x="158" y="675" type="curve" smooth="yes"/>
      <point x="158" y="694"/>
      <point x="142" y="708"/>
      <point x="124" y="708" type="curve" smooth="yes"/>
      <point x="106" y="708"/>
      <point x="91" y="694"/>
      <point x="91" y="675" type="curve" smooth="yes"/>
      <point x="91" y="657"/>
      <point x="106" y="641"/>
      <point x="124" y="641" type="curve" smooth="yes"/>
      <point x="142" y="641"/>
      <point x="158" y="657"/>
    </contour>
    <contour>
      <point x="75" y="-128" type="curve" smooth="yes"/>
      <point x="147" y="-4" type="line"/>
      <point x="147" y="4" type="line"/>
      <point x="103" y="2" type="line"/>
      <point x="103" y="-3" type="line"/>
      <point x="39" y="-114" type="line" smooth="yes"/>
      <point x="-2" y="-186"/>
      <point x="47" y="-256"/>
      <point x="135" y="-231" type="curve" smooth="yes"/>
      <point x="153" y="-226"/>
      <point x="237" y="-197"/>
      <point x="239" y="-196" type="curve"/>
      <point x="222" y="-156" type="line"/>
      <point x="222" y="-156"/>
      <point x="180" y="-171"/>
      <point x="125" y="-189" type="curve" smooth="yes"/>
      <point x="75" y="-207"/>
      <point x="49" y="-175"/>
    </contour>
  </outline>
</glyph>
<glyph name="IJ" format="1">
  <advance width="367"/>
  <unicode hex="0132"/>
  <outline>
    <contour>
      <point x="20" y="649" type="line"/>
      <point x="88" y="647" type="line"/>
      <point x="88" y="0" type="line"/>
      <point x="143" y="0" type="line"/>
      <point x="143" y="698" type="line"/>
      <point x="20" y="698" type="line"/>
    </contour>
    <contour>
      <point x="326" y="118" type="curve" smooth="yes"/>
      <point x="326" y="698" type="line"/>
      <point x="203" y="698" type="line"/>
      <point x="203" y="649" type="line"/>
      <point x="269" y="647" type="line"/>
      <point x="269" y="113" type="line" smooth="yes"/>
      <point x="269" y="34"/>
      <point x="231" y="0"/>
      <point x="187" y="0" type="curve"/>
      <point x="201" y="-37" type="line"/>
      <point x="244" y="-37"/>
      <point x="276" y="-21"/>
      <point x="297" y="10" type="curve" smooth="yes"/>
      <point x="316" y="36"/>
      <point x="326" y="73"/>
    </contour>
  </outline>
</glyph>
<glyph name="Lcaron" format="1">
  <advance width="480"/>
  <unicode hex="013D"/>
  <outline>
    <contour>
      <point x="97" y="0" type="line"/>
      <point x="458" y="0" type="line"/>
      <point x="458" y="50" type="line"/>
      <point x="153" y="50" type="line"/>
      <point x="153" y="698" type="line"/>
      <point x="97" y="698" type="line"/>
    </contour>
    <contour>
      <point x="126" y="827" type="line"/>
      <point x="36" y="915" type="line"/>
      <point x="-3" y="877" type="line"/>
      <point x="126" y="751" type="line"/>
      <point x="257" y="879" type="line"/>
      <point x="218" y="916" type="line"/>
    </contour>
  </outline>
</glyph>
<glyph name="ncaron" format="1">
  <advance width="438"/>
  <unicode hex="0148"/>
  <outline>
    <contour>
      <point x="349" y="342" type="curve" smooth="yes"/>
      <point x="349" y="0" type="line"/>
      <point x="404" y="0" type="line"/>
      <point x="404" y="345" type="line" smooth="yes"/>
      <point x="404" y="450"/>
      <point x="340" y="508"/>
      <point x="230" y="508" type="curve" smooth="yes"/>
      <point x="181" y="508"/>
      <point x="130" y="492"/>
      <point x="92" y="465" type="curve"/>
      <point x="92" y="499" type="line"/>
      <point x="36" y="499" type="line"/>
      <point x="36" y="0" type="line"/>
      <point x="92" y="0" type="line"/>
      <point x="92" y="424" type="line"/>
      <point x="133" y="447"/>
      <point x="174" y="458"/>
      <point x="219" y="458" type="curve" smooth="yes"/>
      <point x="283" y="458"/>
      <point x="349" y="432"/>
    </contour>
    <contour>
      <point x="218" y="624" type="line"/>
      <point x="129" y="712" type="line"/>
      <point x="90" y="673" type="line"/>
      <point x="218" y="548" type="line"/>
      <point x="349" y="674" type="line"/>
      <point x="311" y="713" type="line"/>
    </contour>
  </outline>
</glyph>
<glyph name="Eng" format="1">
  <advance width="576"/>
  <unicode hex="014A"/>
  <outline>
    <contour>
      <point x="533" y="-62" type="curve" smooth="yes"/>
      <point x="533" y="698" type="line"/>
      <point x="477" y="698" type="line"/>
      <point x="477" y="103" type="line"/>
      <point x="98" y="698" type="line"/>
      <point x="41" y="698" type="line"/>
      <point x="41" y="0" type="line"/>
      <point x="97" y="0" type="line"/>
      <point x="97" y="595" type="line"/>
      <point x="477" y="1" type="line"/>
      <point x="477" y="-62" type="line" smooth="yes"/>
      <point x="477" y="-89"/>
      <point x="471" y="-112"/>
      <point x="458" y="-130" type="curve" smooth="yes"/>
      <point x="447" y="-145"/>
      <point x="432" y="-157"/>
      <point x="412" y="-165" type="curve"/>
      <point x="427" y="-208" type="line"/>
      <point x="460" y="-197"/>
      <point x="483" y="-184"/>
      <point x="501" y="-165" type="curve" smooth="yes"/>
      <point x="524" y="-140"/>
      <point x="533" y="-107"/>
    </contour>
  </outline>
</glyph>
<glyph name="Ohungarumlaut" format="1">
  <advance width="490"/>
  <unicode hex="0150"/>
  <outline>
    <contour>
      <point x="34" y="506" type="curve" smooth="yes"/>
      <point x="34" y="185" type="line" smooth="yes"/>
      <point x="34" y="56"/>
      <point x="127" y="-11"/>
      <point x="245" y="-11" type="curve" smooth="yes"/>
      <point x="368" y="-11"/>
      <point x="454" y="64"/>
      <point x="454" y="185" type="curve" smooth="yes"/>
      <point x="454" y="505" type="line" smooth="yes"/>
      <point x="454" y="635"/>
      <point x="378" y="714"/>
      <point x="246" y="714" type="curve" smooth="yes"/>
      <point x="114" y="714"/>
      <point x="34" y="642"/>
    </contour>
    <contour>
      <point x="90" y="186" type="curve" smooth="yes"/>
      <point x="90" y="515" type="line" smooth="yes"/>
      <point x="90" y="612"/>
      <point x="151" y="661"/>
      <point x="243" y="661" type="curve" smooth="yes"/>
      <point x="337" y="661"/>
      <point x="399" y="612"/>
      <point x="399" y="515" type="curve" smooth="yes"/>
      <point x="399" y="186" type="line" smooth="yes"/>
      <point x="399" y="88"/>
      <point x="335" y="42"/>
      <point x="243" y="42" type="curve" smooth="yes"/>
      <point x="155" y="42"/>
      <point x="90" y="90"/>
    </contour>
    <contour>
      <point x="198" y="849" type="curve" smooth="yes"/>
      <point x="161" y="743" type="line"/>
      <point x="196" y="743" type="line"/>
      <point x="249" y="822" type="line"/>
      <point x="261" y="836"/>
      <point x="260" y="859"/>
      <point x="242" y="869" type="curve" smooth="yes"/>
      <point x="225" y="879"/>
      <point x="204" y="868"/>
    </contour>
    <contour>
      <point x="328" y="849" type="curve" smooth="yes"/>
      <point x="291" y="743" type="line"/>
      <point x="326" y="743" type="line"/>
      <point x="379" y="822" type="line"/>
      <point x="392" y="836"/>
      <point x="390" y="859"/>
      <point x="372" y="869" type="curve" smooth="yes"/>
      <point x="354" y="879"/>
      <point x="334" y="868"/>
    </contour>
  </outline>
</glyph>
<glyph name="rcaron" format="1">
  <advance width="338"/>
  <unicode hex="0159"/>
  <outline>
    <contour>
      <point x="306" y="459" type="curve"/>
      <point x="310" y="507" type="line"/>
      <point x="310" y="507"/>
      <point x="290" y="512"/>
      <point x="265" y="510" type="curve" smooth="yes"/>
      <point x="193" y="507"/>
      <point x="144" y="488"/>
      <point x="95" y="466" type="curve"/>
      <point x="95" y="499" type="line"/>
      <point x="39" y="499" type="line"/>
      <point x="39" y="0" type="line"/>
      <point x="95" y="0" type="line"/>
      <point x="95" y="408" type="line"/>
      <point x="132" y="433"/>
      <point x="207" y="457"/>
      <point x="264" y="460" type="curve" smooth="yes"/>
      <point x="285" y="461"/>
      <point x="306" y="459"/>
    </contour>
    <contour>
      <point x="174" y="618" type="line"/>
      <point x="85" y="706" type="line"/>
      <point x="47" y="669" type="line"/>
      <point x="174" y="542" type="line"/>
      <point x="306" y="670" type="line"/>
      <point x="268" y="708" type="line"/>
    </contour>
  </outline>
</glyph>
<glyph name="Tcedilla" format="1">
  <advance width="420"/>
  <unicode hex="0162"/>
  <outline>
    <contour>
      <point x="233" y="648" type="line"/>
      <point x="409" y="648" type="line"/>
      <point x="409" y="698" type="line"/>
      <point x="8" y="698" type="line"/>
      <point x="8" y="648" type="line"/>
      <point x="178" y="648" type="line"/>
      <point x="178" y="0" type="line"/>
      <point x="233" y="0" type="line"/>
    </contour>
    <contour>
      <point x="204" y="-44" type="curve"/>
      <point x="230" y="0" type="line"/>
      <point x="179" y="0" type="line"/>
      <point x="140" y="-69" type="line"/>
      <point x="153" y="-98" type="line"/>
      <point x="179" y="-96"/>
      <point x="205" y="-92"/>
      <point x="227" y="-91" type="curve" smooth="yes"/>
      <point x="261" y="-91"/>
      <point x="285" y="-98"/>
      <point x="285" y="-133" type="curve" smooth="yes"/>
      <point x="285" y="-173"/>
      <point x="253" y="-185"/>
      <point x="214" y="-184" type="curve" smooth="yes"/>
      <point x="187" y="-184"/>
      <point x="157" y="-178"/>
      <point x="131" y="-173" type="curve"/>
      <point x="123" y="-202"/>
      <point x="126" y="-193"/>
      <point x="119" y="-221" type="curve"/>
      <point x="122" y="-221"/>
      <point x="173" y="-233"/>
      <point x="220" y="-233" type="curve" smooth="yes"/>
      <point x="299" y="-233"/>
      <point x="336" y="-184"/>
      <point x="335" y="-135" type="curve" smooth="yes"/>
      <point x="335" y="-85"/>
      <point x="296" y="-35"/>
      <point x="230" y="-42" type="curve" smooth="yes"/>
      <point x="221" y="-43"/>
      <point x="213" y="-43"/>
    </contour>
  </outline>
</glyph>
<glyph name="umacron" format="1">
  <advance width="440"/>
  <unicode hex="016B"/>
  <outline>
    <contour>
      <point x="347" y="48" type="curve"/>
      <point x="347" y="0" type="line"/>
      <point x="403" y="0" type="line"/>
      <point x="403" y="499" type="line"/>
      <point x="347" y="499" type="line"/>
      <point x="347" y="172" type="line" smooth="yes"/>
      <point x="347" y="101"/>
      <point x="291" y="44"/>
      <point x="220" y="44" type="curve" smooth="yes"/>
      <point x="156" y="44"/>
      <point x="90" y="68"/>
      <point x="90" y="159" type="curve" smooth="yes"/>
      <point x="90" y="499" type="line"/>
      <point x="34" y="499" type="line"/>
      <point x="34" y="156" type="line" smooth="yes"/>
      <point x="34" y="43"/>
      <point x="97" y="-10"/>
      <point x="208" y="-10" type="curve" smooth="yes"/>
      <point x="258" y="-10"/>
      <point x="313" y="9"/>
    </contour>
    <contour>
      <point x="109" y="543" type="line"/>
      <point x="329" y="543" type="line"/>
      <point x="329" y="601" type="line"/>
      <point x="109" y="601" type="line"/>
    </contour>
  </outline>
</glyph>
<glyph name="Uring" format="1">
  <advance width="494"/>
  <unicode hex="016E"/>
  <outline>
    <contour>
      <point x="455" y="185" type="curve" smooth="yes"/>
      <point x="455" y="698" type="line"/>
      <point x="400" y="698" type="line"/>
      <point x="400" y="186" type="line" smooth="yes"/>
      <point x="400" y="140"/>
      <point x="385" y="106"/>
      <point x="361" y="81" type="curve" smooth="yes"/>
      <point x="334" y="54"/>
      <point x="294" y="42"/>
      <point x="246" y="42" type="curve" smooth="yes"/>
      <point x="204" y="42"/>
      <point x="166" y="53"/>
      <point x="140" y="74" type="curve" smooth="yes"/>
      <point x="109" y="98"/>
      <point x="92" y="135"/>
      <point x="92" y="186" type="curve" smooth="yes"/>
      <point x="92" y="698" type="line"/>
      <point x="37" y="698" type="line"/>
      <point x="37" y="185" type="line" smooth="yes"/>
      <point x="37" y="118"/>
      <point x="57" y="68"/>
      <point x="98" y="36" type="curve" smooth="yes"/>
      <point x="140" y="4"/>
      <point x="189" y="-11"/>
      <point x="247" y="-11" type="curve" smooth="yes"/>
      <point x="303" y="-11"/>
      <point x="352" y="4"/>
      <point x="393" y="36" type="curve" smooth="yes"/>
      <point x="434" y="68"/>
      <point x="455" y="118"/>
    </contour>
    <contour>
      <point x="359" y="857" type="curve" smooth="yes"/>
      <point x="359" y="920"/>
      <point x="308" y="970"/>
      <point x="246" y="970" type="curve" smooth="yes"/>
      <point x="183" y="970"/>
      <point x="131" y="920"/>
      <point x="131" y="857" type="curve" smooth="yes"/>
      <point x="131" y="794"/>
      <point x="183" y="744"/>
      <point x="246" y="744" type="curve" smooth="yes"/>
      <point x="308" y="744"/>
      <point x="359" y="794"/>
    </contour>
    <contour>
      <point x="315" y="857" type="curve" smooth="yes"/>
      <point x="315" y="818"/>
      <point x="284" y="788"/>
      <point x="246" y="788" type="curve" smooth="yes"/>
      <point x="207" y="788"/>
      <point x="176" y="818"/>
      <point x="176" y="857" type="curve" smooth="yes"/>
      <point x="176" y="895"/>
      <point x="207" y="926"/>
      <point x="246" y="926" type="curve" smooth="yes"/>
      <point x="284" y="926"/>
      <point x="315" y="895"/>
    </contour>
  </outline>
</glyph>
<glyph name="uhungarumlaut" format="1">
  <advance width="439"/>
  <unicode hex="0171"/>
  <outline>
    <contour>
      <point x="345" y="48" type="curve"/>
      <point x="345" y="0" type="line"/>
      <point x="401" y="0" type="line"/>
      <point x="401" y="499" type="line"/>
      <point x="345" y="499" type="line"/>
      <point x="345" y="172" type="line" smooth="yes"/>
      <point x="345" y="101"/>
      <point x="289" y="44"/>
      <point x="218" y="44" type="curve" smooth="yes"/>
      <point x="154" y="44"/>
      <point x="88" y="68"/>
      <point x="88" y="159" type="curve" smooth="yes"/>
      <point x="88" y="499" type="line"/>
      <point x="32" y="499" type="line"/>
      <point x="32" y="156" type="line" smooth="yes"/>
      <point x="32" y="43"/>
      <point x="95" y="-10"/>
      <point x="206" y="-10" type="curve" smooth="yes"/>
      <point x="256" y="-10"/>
      <point x="311" y="9"/>
    </contour>
    <contour>
      <point x="307" y="650" type="curve" smooth="yes"/>
      <point x="270" y="543" type="line"/>
      <point x="305" y="543" type="line"/>
      <point x="358" y="621" type="line"/>
      <point x="371" y="637"/>
      <point x="369" y="660"/>
      <point x="351" y="670" type="curve" smooth="yes"/>
      <point x="334" y="680"/>
      <point x="314" y="669"/>
    </contour>
    <contour>
      <point x="177" y="650" type="curve" smooth="yes"/>
      <point x="140" y="543" type="line"/>
      <point x="175" y="543" type="line"/>
      <point x="228" y="621" type="line"/>
      <point x="241" y="637"/>
      <point x="239" y="660"/>
      <point x="222" y="670" type="curve" smooth="yes"/>
      <point x="204" y="680"/>
      <point x="184" y="669"/>
    </contour>
  </outline>
</glyph>
<glyph name="Zacute" format="1">
  <advance width="545"/>
  <unicode hex="0179"/>
  <outline>
    <contour>
      <point x="509" y="698" type="line"/>
      <point x="41" y="698" type="line"/>
      <point x="41" y="647" type="line"/>
      <point x="437" y="647" type="line"/>
      <point x="29" y="50" type="line"/>
      <point x="29" y="0" type="line"/>
      <point x="514" y="0" type="line"/>
      <point x="514" y="51" type="line"/>
      <point x="99" y="51" type="line"/>
      <point x="509" y="648" type="line"/>
    </contour>
    <contour>
      <point x="285" y="848" type="curve" smooth="yes"/>
      <point x="247" y="741" type="line"/>
      <point x="282" y="741" type="line"/>
      <point x="336" y="821" type="line"/>
      <point x="348" y="835"/>
      <point x="347" y="858"/>
      <point x="329" y="868" type="curve" smooth="yes"/>
      <point x="311" y="878"/>
      <point x="291" y="867"/>
    </contour>
  </outline>
</glyph>
<glyph name="zdotaccent" format="1">
  <advance width="425"/>
  <unicode hex="017C"/>
  <outline>
    <contour>
      <point x="376" y="499" type="line"/>
      <point x="39" y="499" type="line"/>
      <point x="39" y="449" type="line"/>
      <point x="304" y="449" type="line"/>
      <point x="30" y="50" type="line"/>
      <point x="30" y="0" type="line"/>
      <point x="397" y="0" type="line"/>
      <point x="397" y="51" type="line"/>
      <point x="99" y="51" type="line"/>
      <point x="376" y="450" type="line"/>
    </contour>
    <contour>
      <point x="246" y="603" type="curve" smooth="yes"/>
      <point x="246" y="621"/>
      <point x="230" y="636"/>
      <point x="213" y="636" type="curve" smooth="yes"/>
      <point x="194" y="636"/>
      <point x="179" y="621"/>
      <point x="179" y="603" type="curve" smooth="yes"/>
      <point x="179" y="584"/>
      <point x="194" y="569"/>
      <point x="213" y="569" type="curve" smooth="yes"/>
      <point x="230" y="569"/>
      <point x="246" y="584"/>
    </contour>
  </outline>
</glyph>
<glyph name="Alphatonos" format="1">
  <advance width="545"/>
  <unicode hex="0386"/>
  <outline>
    <contour>
      <point x="525" y="0" type="line"/>
      <point x="298" y="698" type="line"/>
      <point x="245" y="698" type="line"/>
      <point x="22" y="0" type="line"/>
      <point x="81" y="0" type="line"/>
      <point x="159" y="244" type="line"/>
      <point x="386" y="244" type="line"/>
      <point x="466" y="0" type="line"/>
    </contour>
    <contour>
      <point x="174" y="299" type="line"/>
      <point x="271" y="612" type="line"/>
      <point x="371" y="299" type="line"/>
    </contour>
    <contour>
      <point x="183" y="805" type="curve" smooth="yes"/>
      <point x="146" y="698" type="line"/>
      <point x="181" y="698" type="line"/>
      <point x="234" y="777" type="line"/>
      <point x="247" y="792"/>
      <point x="245" y="815"/>
      <point x="227" y="825" type="curve" smooth="yes"/>
      <point x="210" y="835"/>
      <point x="190" y="824"/>
    </contour>
  </outline>
</glyph>
<glyph name="iotadieresistonos" format="1">
  <advance width="264"/>
  <unicode hex="0390"/>
  <outline>
    <contour>
      <point x="99" y="0" type="line"/>
      <point x="155" y="0" type="line"/>
      <point x="155" y="499" type="line"/>
      <point x="99" y="499" type="line"/>
    </contour>
    <contour>
      <point x="142" y="754" type="curve" smooth="yes"/>
      <point x="105" y="647" type="line"/>
      <point x="140" y="647" type="line"/>
      <point x="193" y="726" type="line"/>
      <point x="205" y="740"/>
      <point x="204" y="763"/>
      <point x="186" y="773" type="curve" smooth="yes"/>
      <point x="169" y="783"/>
      <point x="148" y="772"/>
    </contour>
    <contour>
      <point x="209" y="637" type="curve" smooth="yes"/>
      <point x="192" y="637"/>
      <point x="176" y="621"/>
      <point x="176" y="603" type="curve" smooth="yes"/>
      <point x="176" y="585"/>
      <point x="192" y="570"/>
      <point x="209" y="570" type="curve" smooth="yes"/>
      <point x="228" y="570"/>
      <point x="244" y="585"/>
      <point x="244" y="603" type="curve" smooth="yes"/>
      <point x="244" y="621"/>
      <point x="228" y="637"/>
    </contour>
    <contour>
      <point x="52" y="637" type="curve" smooth="yes"/>
      <point x="33" y="637"/>
      <point x="18" y="621"/>
      <point x="18" y="603" type="curve" smooth="yes"/>
      <point x="18" y="585"/>
      <point x="33" y="570"/>
      <point x="52" y="570" type="curve" smooth="yes"/>
      <point x="71" y="570"/>
      <point x="85" y="585"/>
      <point x="85" y="603" type="curve" smooth="yes"/>
      <point x="85" y="621"/>
      <point x="71" y="637"/>
    </contour>
  </outline>
</glyph>
<glyph name="Iota" format="1">
  <advance width="188"/>
  <unicode hex="0399"/>
  <outline>
    <contour>
      <point x="20" y="649" type="line"/>
      <point x="88" y="647" type="line"/>
      <point x="88" y="0" type="line"/>
      <point x="145" y="0" type="line"/>
      <point x="145" y="698" type="line"/>
      <point x="20" y="698" type="line"/>
    </contour>
  </outline>
</glyph>
<glyph name="nu" format="1">
  <advance width="427"/>
  <unicode hex="03BD"/>
  <outline>
    <contour>
      <point x="19" y="499" type="line"/>
      <point x="171" y="0" type="line"/>
      <point x="248" y="0" type="line"/>
      <point x="403" y="499" type="line"/>
      <point x="344" y="499" type="line"/>
      <point x="211" y="58" type="line"/>
      <point x="77" y="499" type="line"/>
    </contour>
  </outline>
</glyph>
<glyph name="Wgrave" format="1">
  <advance width="731"/>
  <unicode hex="1E80"/>
  <outline>
    <contour>
      <point x="404" y="698" type="line"/>
      <point x="326" y="698" type="line"/>
      <point x="219" y="69" type="line"/>
      <point x="78" y="698" type="line"/>
      <point x="17" y="698" type="line"/>
      <point x="182" y="0" type="line"/>
      <point x="267" y="0" type="line"/>
      <point x="366" y="597" type="line"/>
      <point x="464" y="0" type="line"/>
      <point x="548" y="0" type="line"/>
      <point x="711" y="698" type="line"/>
      <point x="652" y="698" type="line"/>
      <point x="511" y="69" type="line"/>
    </contour>
    <contour>
      <point x="379" y="828" type="line"/>
      <point x="415" y="828" type="line"/>
      <point x="377" y="935" type="line" smooth="yes"/>
      <point x="371" y="954"/>
      <point x="350" y="965"/>
      <point x="333" y="955" type="curve" smooth="yes"/>
      <point x="315" y="945"/>
      <point x="314" y="922"/>
      <point x="326" y="908" type="curve"/>
    </contour>
  </outline>
</glyph>
<glyph name="ffl" format="1">
  <advance width="596"/>
  <unicode hex="FB04"/>
  <outline>
    <contour>
      <point x="498" y="627" type="curve"/>
      <point x="498" y="0" type="line"/>
      <point x="554" y="0" type="line"/>
      <point x="554" y="664" type="line"/>
      <point x="514" y="690"/>
      <point x="475" y="703"/>
      <point x="427" y="703" type="curve" smooth="yes"/>
      <point x="379" y="703"/>
      <point x="340" y="689"/>
      <point x="313" y="662" type="curve"/>
      <point x="274" y="690"/>
      <point x="229" y="704"/>
      <point x="181" y="704" type="curve" smooth="yes"/>
      <point x="131" y="704"/>
      <point x="39" y="668"/>
      <point x="39" y="559" type="curve" smooth="yes"/>
      <point x="39" y="373"/>
      <point x="39" y="186"/>
      <point x="39" y="0" type="curve"/>
      <point x="95" y="0" type="line"/>
      <point x="95" y="446" type="line"/>
      <point x="186" y="446" type="line"/>
      <point x="194" y="463"/>
      <point x="202" y="481"/>
      <point x="209" y="498" type="curve"/>
      <point x="95" y="498" type="line"/>
      <point x="95" y="515"/>
      <point x="95" y="531"/>
      <point x="95" y="548" type="curve" smooth="yes"/>
      <point x="95" y="627"/>
      <point x="139" y="657"/>
      <point x="201" y="650" type="curve" smooth="yes"/>
      <point x="226" y="648"/>
      <point x="253" y="636"/>
      <point x="283" y="618" type="curve"/>
      <point x="275" y="599"/>
      <point x="268" y="580"/>
      <point x="268" y="559" type="curve" smooth="yes"/>
      <point x="268" y="373"/>
      <point x="268" y="186"/>
      <point x="268" y="0" type="curve"/>
      <point x="328" y="0" type="line"/>
      <point x="328" y="446" type="line"/>
      <point x="418" y="446" type="line"/>
      <point x="426" y="463"/>
      <point x="434" y="481"/>
      <point x="442" y="498" type="curve"/>
      <point x="328" y="498" type="line"/>
      <point x="328" y="555" type="line" smooth="yes"/>
      <point x="328" y="591"/>
      <point x="345" y="618"/>
      <point x="378" y="636" type="curve" smooth="yes"/>
      <point x="405" y="651"/>
      <point x="445" y="654"/>
    </contour>
  </outline>
</glyph>
<glyph name="hungarumlautcomb" format="1">
  <advance width="262"/>
  <outline>
    <contour>
      <point x="25" y="580" type="line"/>
      <point x="60" y="580" type="line"/>
      <point x="114" y="658" type="line"/>
      <point x="126" y="673"/>
      <point x="125" y="696"/>
      <point x="107" y="706" type="curve" smooth="yes"/>
      <point x="90" y="716"/>
      <point x="69" y="705"/>
      <point x="63" y="686" type="curve" smooth="yes"/>
    </contour>
    <contour>
      <point x="137" y="580" type="line"/>
      <point x="172" y="580" type="line"/>
      <point x="225" y="658" type="line"/>
      <point x="238" y="673"/>
      <point x="236" y="696"/>
      <point x="218" y="706" type="curve" smooth="yes"/>
      <point x="201" y="716"/>
      <point x="181" y="705"/>
      <point x="174" y="686" type="curve" smooth="yes"/>
    </contour>
  </outline>
</glyph>
